<?xml version="1.0" encoding="UTF-8" standalone="no"?>
<svg
   xmlns:dc="http://purl.org/dc/elements/1.1/"
   xmlns:cc="http://creativecommons.org/ns#"
   xmlns:rdf="http://www.w3.org/1999/02/22-rdf-syntax-ns#"
   xmlns:svg="http://www.w3.org/2000/svg"
   xmlns="http://www.w3.org/2000/svg"
   xmlns:sodipodi="http://sodipodi.sourceforge.net/DTD/sodipodi-0.dtd"
   xmlns:inkscape="http://www.inkscape.org/namespaces/inkscape"
   inkscape:version="1.0 (4035a4fb49, 2020-05-01)"
   sodipodi:docname="centaur_b.svg"
   id="svg2"
   height="45"
   width="45"
   version="1.1">
  <sodipodi:namedview
     inkscape:current-layer="svg2"
     inkscape:window-maximized="0"
     inkscape:window-y="75"
     inkscape:window-x="412"
     inkscape:cy="18.313953"
     inkscape:cx="22.5"
     inkscape:zoom="19.111111"
     showgrid="false"
     id="namedview19"
     inkscape:window-height="847"
     inkscape:window-width="1121"
     inkscape:pageshadow="2"
     inkscape:pageopacity="0"
     guidetolerance="10"
     gridtolerance="10"
     objecttolerance="10"
     borderopacity="1"
     bordercolor="#666666"
     pagecolor="#ffffff" />
  <metadata
     id="metadata26">
    <rdf:RDF>
      <cc:Work
         rdf:about="">
        <dc:format>image/svg+xml</dc:format>
        <dc:type
           rdf:resource="http://purl.org/dc/dcmitype/StillImage" />
        <dc:title />
      </cc:Work>
    </rdf:RDF>
  </metadata>
  <defs
     id="defs24" />
  <g
     id="g4306"
     style="opacity:1;fill:none;fill-opacity:1;fill-rule:evenodd;stroke:#000000;stroke-width:1.76425695;stroke-linecap:round;stroke-linejoin:round;stroke-miterlimit:4;stroke-dasharray:none;stroke-opacity:1"
     transform="matrix(0.91130361,0,0,0.79322383,2.588207,13.389015)">
    <path
       id="path4308"
       style="fill:#000000;stroke:#000000;stroke-width:1.76425695"
       d="m 22,10 c 10.5,1 16.5,8 16,29 l -23,0 c 0,-9 10,-6.5 8,-21" />
    <path
       id="path4310"
       style="fill:#000000;stroke:#000000;stroke-width:1.76425695"
       d="m 24,18 c 0.38,2.91 -5.55,7.37 -8,9 -3,2 -2.82,4.34 -5,4 -1.042,-0.94 1.41,-3.04 0,-3 -1,0 0.19,1.23 -1,2 -1,0 -4.003,1 -4,-4 0,-2 6,-12 6,-12 0,0 1.89,-1.9 2,-3.5 -0.73,-0.994 -0.5,-2 -0.5,-3 1,-1 3,2.5 3,2.5 l 2,0 c 0,0 0.78,-1.992 2.5,-3 1,0 1,3 1,3" />
    <path
       id="path4312"
       style="fill:#ffffff;stroke:#ffffff;stroke-width:1.76425695"
       d="m 9.5,25.5 a 0.5,0.5 0 1 1 -1,0 0.5,0.5 0 1 1 1,0 z" />
    <path
       id="path4314"
       style="fill:#ffffff;stroke:#ffffff;stroke-width:1.76425695"
       transform="matrix(0.866,0.5,-0.5,0.866,9.693,-5.173)"
       d="m 15,15.5 a 0.5,1.5 0 1 1 -1,0 0.5,1.5 0 1 1 1,0 z" />
    <path
       id="path4316"
       style="fill:#ffffff;stroke:none"
       d="M 24.55,10.4 24.1,11.85 24.6,12 c 3.15,1 5.65,2.49 7.9,6.75 2.25,4.26 3.25,10.31 2.75,20.25 l -0.05,0.5 2.25,0 L 37.5,39 C 38,28.94 36.62,22.15 34.25,17.66 31.88,13.17 28.46,11.02 25.06,10.5 l -0.51,-0.1 z" />
  </g>
  <g
     id="g4453"
     transform="translate(-60,1.0103499)">
    <g
       id="g4445">
      <path
         d="m 82.499775,5.267496 0,-5.63"
         style="fill:none;fill-opacity:1;fill-rule:evenodd;stroke:#000000;stroke-width:1.5;stroke-linecap:round;stroke-linejoin:miter;stroke-miterlimit:4;stroke-dasharray:none;stroke-opacity:1"
         id="path6570" />
      <path
         d="m 82.499775,18.637496 c 0,0 4.5,-7.5 3,-10.5 0,0 -1,-2.5 -3,-2.5 -2,0 -3,2.5 -3,2.5 -1.5,3 3,10.5 3,10.5"
         style="fill:#000000;fill-opacity:1;fill-rule:evenodd;stroke:#000000;stroke-width:1.5;stroke-linecap:butt;stroke-linejoin:miter;stroke-miterlimit:4;stroke-dasharray:none;stroke-opacity:1"
         id="path4410" />
      <path
         d="m 92.499775,23.637496 c 0,0 9.000005,-4.5 6,-10.5 -4,-6.5 -13.5,-3.5 -16,4 l 0,3.5 0,-3.5 c -3.5,-7.5 -13,-10.5 -16,-4 -3,6 5,10 5,10 7.216512,-1.348919 14.289707,-1.694619 21,0.5 z"
         style="fill:#000000;fill-opacity:1;fill-rule:evenodd;stroke:#000000;stroke-width:1.5;stroke-linecap:round;stroke-linejoin:round;stroke-miterlimit:4;stroke-dasharray:none;stroke-opacity:1"
         id="path4412" />
      <path
         d="m 79.999775,1.637496 5,0"
         style="fill:none;fill-opacity:1;fill-rule:evenodd;stroke:#000000;stroke-width:1.5;stroke-linecap:round;stroke-linejoin:miter;stroke-miterlimit:4;stroke-dasharray:none;stroke-opacity:1"
         id="path4414" />
      <path
         sodipodi:nodetypes="cscccccc"
         d="m 92.761403,23.061915 c 0,0 3.214775,-1.795666 4.937795,-4.786236 0.796134,-1.381814 1.111178,-3.0026 0.330577,-4.788183 -3.88,-5.85 -13.03,-1.85 -15.53,4.65 l 0.01,2.1 -0.01,-2.1 c -2.5,-6.5 -12.594,-10.5 -15.503,-4.65 -2.497,5.65 4.853,9 4.853,9"
         style="fill:none;fill-opacity:1;fill-rule:evenodd;stroke:#ffffff;stroke-width:1.5;stroke-linecap:round;stroke-linejoin:round;stroke-miterlimit:4;stroke-dasharray:none;stroke-opacity:1"
         id="path4416" />
      <path
         sodipodi:nodetypes="cc"
         d="m 71.849775,22.487496 c 5.5,-3 15.411628,-2.425581 20.911628,0.574419"
         style="fill:none;fill-opacity:1;fill-rule:evenodd;stroke:#ffffff;stroke-width:1.5;stroke-linecap:round;stroke-linejoin:round;stroke-miterlimit:4;stroke-dasharray:none;stroke-opacity:1"
         id="path4418" />
    </g>
  </g>
</svg>
